<?xml version="1.0" encoding="iso-8859-1"?>
<!-- Generator: Adobe Illustrator 19.0.0, SVG Export Plug-In . SVG Version: 6.00 Build 0)  -->
<svg version="1.1" id="Capa_1" xmlns="http://www.w3.org/2000/svg" xmlns:xlink="http://www.w3.org/1999/xlink" x="0px" y="0px"
	 viewBox="0 0 430.551 430.551" style="enable-background:new 0 0 430.551 430.551;" xml:space="preserve">
<g>
	<g>
		<path d="M430.4,274.498v-118.24c0-25.04-12.88-39.52-35.28-39.52c-2.901-0.074-5.802,0.194-8.64,0.8l-111.2,40l-1.44,0.72
			c-3.195-3.696-7.835-5.826-12.72-5.84H169.2c-4.885,0.014-9.525,2.144-12.72,5.84l-1.68-0.88l-110.88-40
			c-2.841-0.586-5.742-0.828-8.64-0.72c-22.4,0-35.28,14.32-35.28,39.36v118.48c0,25.04,12.88,39.36,35.28,39.36
			c2.899,0.129,5.802-0.113,8.64-0.72l110.88-40h0.72l1.04-0.48c3.192,3.645,7.795,5.743,12.64,5.76h92
			c4.845-0.017,9.448-2.115,12.64-5.76l1.04,0.48h0.72l110.88,40c2.829,0.662,5.74,0.904,8.64,0.72
			c7.931,0.305,15.734-2.062,22.16-6.72C426.618,298.98,431.493,286.85,430.4,274.498z M152.32,255.778c0,0.64,0,0.96,0,0.96
			c-0.971,0.766-2.05,1.386-3.2,1.84L39.6,297.698c-1.438,0.097-2.882,0.097-4.32,0c-8.96,0-19.28-2.64-19.28-23.36v-118.08
			c0-20.72,10.32-23.36,19.28-23.36c1.69-0.11,3.388,0.025,5.04,0.4l108.72,39.04c3.12,1.28,3.12,1.84,3.12,2.8l0.08,20.48
			l-51.36-12.8c-4.327-0.894-8.559,1.888-9.454,6.215c-0.846,4.092,1.6,8.145,5.614,9.305l55.2,13.76v11.28l-33.04,7.2
			c-4.418,0.486-7.606,4.462-7.12,8.88s4.462,7.606,8.88,7.12h1.76l29.6-6.8V255.778z M262.16,175.378v86
			c0,0.53-0.43,0.96-0.96,0.96h-92c-0.53,0-0.96-0.43-0.96-0.96v-92c0-0.53,0.43-0.96,0.96-0.96h92c0.53,0,0.96,0.43,0.96,0.96
			V175.378z M407.28,294.738c-3.642,2.481-8.001,3.691-12.4,3.44h-3.84h-0.48l-109.12-39.76c-1.103-0.468-2.149-1.058-3.12-1.76
			c-0.054-0.345-0.054-0.695,0-1.04v-16.24l29.6,6.8h1.76c4.418,0.486,8.394-2.702,8.88-7.12s-2.702-8.394-7.12-8.88l-33.28-6.8
			v-11.28l55.2-13.76c4.245-1.227,6.691-5.662,5.465-9.906c-1.16-4.014-5.213-6.459-9.305-5.614l-51.36,12.8v-20.24
			c0-0.96,0-1.52,2.88-2.72L390,133.538c1.679-0.38,3.4-0.542,5.12-0.48c8.96,0,19.28,2.64,19.28,23.36l-0.24,118.32
			C415.086,282.111,412.546,289.496,407.28,294.738z"/>
	</g>
</g>
<g>
</g>
<g>
</g>
<g>
</g>
<g>
</g>
<g>
</g>
<g>
</g>
<g>
</g>
<g>
</g>
<g>
</g>
<g>
</g>
<g>
</g>
<g>
</g>
<g>
</g>
<g>
</g>
<g>
</g>
</svg>
