<?xml version="1.0" encoding="UTF-8" standalone="no"?>
<svg
   xmlns:dc="http://purl.org/dc/elements/1.1/"
   xmlns:cc="http://creativecommons.org/ns#"
   xmlns:rdf="http://www.w3.org/1999/02/22-rdf-syntax-ns#"
   xmlns:svg="http://www.w3.org/2000/svg"
   xmlns="http://www.w3.org/2000/svg"
   xmlns:sodipodi="http://sodipodi.sourceforge.net/DTD/sodipodi-0.dtd"
   xmlns:inkscape="http://www.inkscape.org/namespaces/inkscape"
   inkscape:version="1.0 (4035a4fb49, 2020-05-01)"
   inkscape:export-ydpi="96"
   inkscape:export-xdpi="96"
   inkscape:export-filename="C:\Source\home-page\jacksonjhayes\docs\assets\images\student.png"
   height="500"
   width="700"
   sodipodi:docname="student.svg"
   xml:space="preserve"
   viewBox="0 0 700.00001 500.00001"
   y="0px"
   x="0px"
   id="Capa_1"
   version="1.1"><metadata
   id="metadata43"><rdf:RDF><cc:Work
       rdf:about=""><dc:format>image/svg+xml</dc:format><dc:type
         rdf:resource="http://purl.org/dc/dcmitype/StillImage" /><dc:title></dc:title></cc:Work></rdf:RDF></metadata><defs
   id="defs41" /><sodipodi:namedview
   inkscape:current-layer="g6"
   inkscape:window-maximized="1"
   inkscape:window-y="-6"
   inkscape:window-x="-6"
   inkscape:cy="156.84561"
   inkscape:cx="341.0762"
   inkscape:zoom="0.60355625"
   inkscape:snap-object-midpoints="true"
   showgrid="false"
   id="namedview39"
   inkscape:window-height="978"
   inkscape:window-width="1500"
   inkscape:pageshadow="2"
   inkscape:pageopacity="0"
   guidetolerance="10"
   gridtolerance="10"
   objecttolerance="10"
   borderopacity="1"
   bordercolor="#666666"
   pagecolor="#ffffff" />
<g
   transform="matrix(1.2884352,0,0,1.296923,65.933771,-46.991284)"
   id="g6">
	
<rect
   y="36.871662"
   x="-52.459461"
   height="386.57794"
   width="545.24915"
   id="rect79"
   style="fill:#008000;stroke-width:10.1794;fill-opacity:1" /><path
   style="stroke-width:0.734321;fill:#ffffff"
   d="m 226.43286,53.941909 h -77.46512 c -3.29076,0 -5.95885,2.59318 -5.95885,5.791531 v 40.54072 H 53.626054 c -3.29075,0 -5.95885,2.59319 -5.95885,5.79154 v 289.5766 c 0,3.19835 2.6681,5.79153 5.95885,5.79153 H 226.43286 c 3.29076,0 5.95886,-2.59318 5.95886,-5.79153 V 59.73344 c 0,-3.198351 -2.6681,-5.791531 -5.95886,-5.791531 z M 220.47401,355.10158 H 154.9266 v -11.58307 h 65.54741 z M 59.584914,140.81489 H 143.00889 V 314.56086 H 59.584914 Z M 220.47401,117.64876 H 154.9266 v -17.3746 h 65.54741 z M 59.584914,326.14392 h 83.423976 v 17.37459 H 59.584914 Z m 95.341686,5.79153 V 129.23182 h 65.54741 V 331.93545 Z M 220.47401,65.524972 V 88.6911 H 154.9266 V 65.524972 Z m -77.46512,46.332258 v 17.37459 H 59.584914 V 111.85723 Z M 59.584914,355.10158 h 83.423976 v 34.74919 H 59.584914 Z m 95.341686,34.74919 v -23.16613 h 65.54741 v 23.16613 z m 0,0"
   id="path938" /><path
   style="stroke-width:0.734321;fill:#ffffff"
   d="M 405.0065,371.01698 333.50024,104.6065 c -0.39862,-1.49313 -1.3937,-2.76851 -2.76703,-3.54618 -1.37042,-0.77484 -3.00271,-0.98694 -4.53607,-0.5882 l -89.38283,23.16613 c -3.16564,0.82008 -5.05688,3.97036 -4.23055,7.05277 l 71.50626,266.41047 c 0.39862,1.49313 1.3966,2.76852 2.76994,3.54336 1.37042,0.77201 3.0027,0.98128 4.53315,0.57972 l 89.38284,-23.16612 c 3.15982,-0.8201 5.04814,-3.96473 4.23055,-7.04147 z M 255.10695,168.71775 332.9765,148.5407 l 2.80195,10.42363 -77.86375,20.20815 z m 83.68002,1.48464 34.5602,128.84745 -77.84046,20.18552 -34.5602,-128.85593 z m 37.59491,140.06006 6.10143,22.7278 -77.86956,20.17704 -6.07815,-22.71931 z m -52.90231,-197.10156 6.48841,24.17852 -77.86956,20.17138 -6.48258,-24.1672 z m -9.36889,275.38622 -6.48841,-24.17851 77.86956,-20.18271 6.48258,24.16722 z m 0,0"
   id="path940" /><path
   style="stroke-width:0.734321;fill:#ffffff"
   d="M 125.13232,158.18949 H 77.461484 c -3.29076,0 -5.95886,2.59318 -5.95886,5.79153 v 46.33225 c 0,3.19836 2.6681,5.79154 5.95886,5.79154 h 47.670836 c 3.29076,0 5.95886,-2.59318 5.95886,-5.79154 v -46.33225 c 0,-3.19835 -2.6681,-5.79153 -5.95886,-5.79153 z m -5.95885,46.33225 H 83.420334 v -34.74919 h 35.753136 z m 0,0"
   id="path942" /></g>
<g
   transform="translate(0.1838407,-115.88468)"
   id="g8">
</g>
<g
   transform="translate(0.1838407,-115.88468)"
   id="g10">
</g>
<g
   transform="translate(0.1838407,-115.88468)"
   id="g12">
</g>
<g
   transform="translate(0.1838407,-115.88468)"
   id="g14">
</g>
<g
   transform="translate(0.1838407,-115.88468)"
   id="g16">
</g>
<g
   transform="translate(0.1838407,-115.88468)"
   id="g18">
</g>
<g
   transform="translate(0.1838407,-115.88468)"
   id="g20">
</g>
<g
   transform="translate(0.1838407,-115.88468)"
   id="g22">
</g>
<g
   transform="translate(0.1838407,-115.88468)"
   id="g24">
</g>
<g
   transform="translate(0.1838407,-115.88468)"
   id="g26">
</g>
<g
   transform="translate(0.1838407,-115.88468)"
   id="g28">
</g>
<g
   transform="translate(0.1838407,-115.88468)"
   id="g30">
</g>
<g
   transform="translate(0.1838407,-115.88468)"
   id="g32">
</g>
<g
   transform="translate(0.1838407,-115.88468)"
   id="g34">
</g>
<g
   transform="translate(0.1838407,-115.88468)"
   id="g36">
</g>
</svg>
